<mxfile host="65bd71144e">
    <diagram id="dLo5CewHENa7nYr-4T7L" name="Page-1">
        <mxGraphModel dx="769" dy="1470" grid="1" gridSize="10" guides="1" tooltips="1" connect="1" arrows="1" fold="1" page="1" pageScale="1" pageWidth="850" pageHeight="1100" math="0" shadow="0">
            <root>
                <mxCell id="0"/>
                <mxCell id="1" parent="0"/>
                <mxCell id="2" value="&lt;font style=&quot;font-size: 16px&quot;&gt;Service&lt;/font&gt;" style="rounded=1;whiteSpace=wrap;html=1;arcSize=5;verticalAlign=top;fillColor=#60a917;strokeColor=#2D7600;fontColor=#ffffff;shadow=1;" vertex="1" parent="1">
                    <mxGeometry x="220" width="170" height="90" as="geometry"/>
                </mxCell>
                <mxCell id="3" value="request()" style="rounded=1;whiteSpace=wrap;html=1;arcSize=5;fillColor=#0050ef;strokeColor=#001DBC;fontColor=#ffffff;shadow=1;" vertex="1" parent="1">
                    <mxGeometry x="230" y="40" width="150" height="40" as="geometry"/>
                </mxCell>
                <mxCell id="7" style="edgeStyle=none;html=1;exitX=0.5;exitY=0;exitDx=0;exitDy=0;entryX=0.5;entryY=1;entryDx=0;entryDy=0;endArrow=block;endFill=0;endSize=19;shadow=1;" edge="1" parent="1" source="4" target="2">
                    <mxGeometry relative="1" as="geometry"/>
                </mxCell>
                <mxCell id="4" value="&lt;font style=&quot;font-size: 16px&quot;&gt;Adapter&lt;/font&gt;" style="rounded=1;whiteSpace=wrap;html=1;arcSize=5;verticalAlign=top;fillColor=#60a917;strokeColor=#2D7600;fontColor=#ffffff;shadow=1;" vertex="1" parent="1">
                    <mxGeometry x="220" y="170" width="170" height="130" as="geometry"/>
                </mxCell>
                <mxCell id="5" value="request()" style="rounded=1;whiteSpace=wrap;html=1;arcSize=5;fillColor=#0050ef;strokeColor=#001DBC;fontColor=#ffffff;shadow=1;" vertex="1" parent="1">
                    <mxGeometry x="230" y="250" width="150" height="40" as="geometry"/>
                </mxCell>
                <mxCell id="6" value="Adaptee" style="rounded=1;whiteSpace=wrap;html=1;arcSize=5;fillColor=#fa6800;strokeColor=#C73500;fontColor=#000000;shadow=1;" vertex="1" parent="1">
                    <mxGeometry x="230" y="200" width="150" height="40" as="geometry"/>
                </mxCell>
                <mxCell id="16" style="edgeStyle=none;html=1;entryX=0;entryY=0.5;entryDx=0;entryDy=0;endArrow=block;endFill=1;endSize=15;shadow=1;exitX=1;exitY=0.5;exitDx=0;exitDy=0;" edge="1" parent="1" source="4" target="8">
                    <mxGeometry relative="1" as="geometry">
                        <mxPoint x="410" y="280" as="sourcePoint"/>
                        <mxPoint x="390" y="210" as="targetPoint"/>
                    </mxGeometry>
                </mxCell>
                <mxCell id="8" value="&lt;font style=&quot;font-size: 16px&quot;&gt;Adaptee&lt;/font&gt;" style="rounded=1;whiteSpace=wrap;html=1;arcSize=5;verticalAlign=top;fillColor=#60a917;strokeColor=#2D7600;fontColor=#ffffff;shadow=1;" vertex="1" parent="1">
                    <mxGeometry x="440" y="195" width="170" height="80" as="geometry"/>
                </mxCell>
                <mxCell id="11" value="performAction()" style="rounded=1;whiteSpace=wrap;html=1;arcSize=5;fillColor=#0050ef;strokeColor=#001DBC;fontColor=#ffffff;shadow=1;" vertex="1" parent="1">
                    <mxGeometry x="450" y="225" width="150" height="40" as="geometry"/>
                </mxCell>
                <mxCell id="15" style="edgeStyle=none;html=1;exitX=1;exitY=0.5;exitDx=0;exitDy=0;entryX=0;entryY=0.5;entryDx=0;entryDy=0;endArrow=block;endFill=1;endSize=15;shadow=1;" edge="1" parent="1" source="12" target="4">
                    <mxGeometry relative="1" as="geometry"/>
                </mxCell>
                <mxCell id="12" value="&lt;font style=&quot;font-size: 16px&quot;&gt;Client&lt;/font&gt;" style="rounded=1;whiteSpace=wrap;html=1;arcSize=5;verticalAlign=top;fillColor=#60a917;strokeColor=#2D7600;fontColor=#ffffff;shadow=1;" vertex="1" parent="1">
                    <mxGeometry y="170" width="170" height="130" as="geometry"/>
                </mxCell>
                <mxCell id="13" value="Service" style="rounded=1;whiteSpace=wrap;html=1;arcSize=5;fillColor=#fa6800;strokeColor=#C73500;fontColor=#000000;shadow=1;" vertex="1" parent="1">
                    <mxGeometry x="10" y="200" width="150" height="40" as="geometry"/>
                </mxCell>
                <mxCell id="14" value="doSomething()" style="rounded=1;whiteSpace=wrap;html=1;arcSize=5;fillColor=#0050ef;strokeColor=#001DBC;fontColor=#ffffff;shadow=1;" vertex="1" parent="1">
                    <mxGeometry x="10" y="250" width="150" height="40" as="geometry"/>
                </mxCell>
            </root>
        </mxGraphModel>
    </diagram>
</mxfile>